<svg width="16" height="16" viewBox="0 0 16 16" fill="none" xmlns="http://www.w3.org/2000/svg">
<path d="M7.60918 15.9969C7.42633 15.8938 7.36938 15.7313 7.37238 15.5188C7.38137 15.0939 7.37538 14.6659 7.37538 14.2441C7.06364 14.1722 6.7549 14.1129 6.45515 14.0254C5.89462 13.8629 5.39404 13.5786 4.9594 13.1724C4.26998 12.5257 4.02718 11.6821 4.0002 10.751C3.99421 10.5167 4.1201 10.4073 4.35391 10.4073C4.87847 10.4042 5.40303 10.4042 5.92759 10.4073C6.19437 10.4073 6.29328 10.5104 6.32026 10.7885C6.36822 11.2915 6.5121 11.754 6.94374 12.0414C7.5852 12.4663 8.27162 12.4976 8.96105 12.2007C9.34173 12.0383 9.55455 11.6977 9.62649 11.279C9.75838 10.4761 9.55455 9.87932 8.92208 9.49502C8.60434 9.30131 8.26863 9.13572 7.92691 8.99824C7.24049 8.72642 6.56306 8.4421 5.93358 8.04843C4.86648 7.37981 4.38988 6.39563 4.39887 5.10838C4.40786 3.40559 5.46598 2.2808 6.93774 1.90588C6.97071 1.8965 7.00668 1.88713 7.03966 1.88088C7.37837 1.8059 7.37837 1.8059 7.37837 1.45284C7.37837 1.10916 7.37837 0.765476 7.37837 0.421793C7.37837 0.124976 7.50127 0 7.79203 0C8.12175 0 8.45147 0 8.7812 0C9.05397 0 9.16787 0.121851 9.17087 0.409295C9.17087 0.840461 9.17387 1.27475 9.16787 1.70592C9.16787 1.80902 9.18586 1.85589 9.29676 1.88088C10.3369 2.12771 11.1582 2.68385 11.6378 3.7149C11.8416 4.15231 11.9376 4.61472 11.9585 5.099C11.9705 5.42707 11.8776 5.53017 11.5599 5.53017C11.0563 5.53329 10.5497 5.53017 10.0461 5.53017C10.0311 5.53017 10.0162 5.53017 10.0012 5.53017C9.78835 5.51767 9.68044 5.40207 9.64747 5.18336C9.62049 4.99278 9.58752 4.80219 9.52757 4.62097C9.33573 4.05233 8.94606 3.72115 8.37054 3.66178C8.14873 3.63991 7.91792 3.65241 7.7021 3.69928C7.18354 3.80551 6.84182 4.19918 6.77288 4.76469C6.7459 4.98965 6.7459 5.22086 6.76689 5.44581C6.80286 5.84261 7.00369 6.14568 7.31243 6.37376C7.74407 6.68932 8.21767 6.9174 8.71525 7.09861C9.50659 7.38606 10.262 7.73911 10.9184 8.29526C11.5958 8.86702 11.9226 9.62 11.9855 10.5136C12.0275 11.101 11.9855 11.679 11.7637 12.2289C11.398 13.1412 10.7116 13.6817 9.83631 13.9941C9.65646 14.0566 9.47362 14.1097 9.28777 14.1441C9.17986 14.1629 9.16487 14.2097 9.16487 14.3066C9.16787 14.7065 9.15588 15.1095 9.17087 15.5095C9.17986 15.7219 9.12591 15.8813 8.95805 16C8.50842 15.9969 8.0588 15.9969 7.60918 15.9969Z" fill="url(#paint0_linear)"/>
<defs>
<linearGradient id="paint0_linear" x1="12" y1="7.52941" x2="4" y2="7.52941" gradientUnits="userSpaceOnUse">
<stop stop-color="#1BDD9D"/>
<stop offset="1" stop-color="#2CC9CC"/>
</linearGradient>
</defs>
</svg>
