<svg width="16" height="16" viewBox="0 0 16 16" fill="none" xmlns="http://www.w3.org/2000/svg">
<path d="M8.30085 0C8.39159 0.0250049 8.48232 0.0500098 8.57306 0.0781403C9.50161 0.35632 10.1519 1.23774 10.0944 2.25982C10.0339 3.36003 9.29896 4.17269 8.2827 4.31959C7.15454 4.48213 6.11711 3.69135 5.92051 2.52549C5.72996 1.37527 6.4861 0.253174 7.59915 0.0343817C7.63242 0.0281305 7.66266 0.0125024 7.69593 0C7.89556 0 8.0982 0 8.30085 0Z" fill="url(#paint0_linear)"/>
<path d="M10.1005 11.4116C10.1005 11.4928 10.1005 11.5522 10.1005 11.6147C10.1005 12.6524 10.1035 13.687 10.1005 14.7247C10.1005 15.3592 9.70428 15.8593 9.11146 15.9843C9.04189 16 8.97233 16 8.90276 16C8.31902 16 7.73225 16 7.14851 16C6.41354 16 5.89634 15.4624 5.89634 14.6997C5.89634 13.6745 5.89634 12.6462 5.89634 11.621C5.89634 11.5585 5.89634 11.496 5.89634 11.4116C5.68159 11.4116 5.48197 11.4116 5.28235 11.4116C4.70163 11.4053 4.26004 11.1146 4.07857 10.5958C4.02413 10.4426 4.00598 10.2707 4.00598 10.1082C3.99993 8.87358 4.00295 7.63896 4.00295 6.40434C4.00295 5.62607 4.49596 5.08534 5.24908 5.08221C7.08499 5.07284 8.91789 5.07596 10.7538 5.08221C11.5735 5.08534 12.012 5.77297 11.9999 6.41372C11.9788 7.64209 11.9939 8.87358 11.9939 10.1019C11.9939 10.8708 11.4978 11.3959 10.7508 11.4147C10.5421 11.4178 10.3304 11.4116 10.1005 11.4116Z" fill="url(#paint1_linear)"/>
<defs>
<linearGradient id="paint0_linear" x1="10.098" y1="2.0427" x2="5.89111" y2="2.0427" gradientUnits="userSpaceOnUse">
<stop stop-color="#1BDD9D"/>
<stop offset="1" stop-color="#2CC9CC"/>
</linearGradient>
<linearGradient id="paint1_linear" x1="12.0002" y1="10.2168" x2="4.0022" y2="10.2168" gradientUnits="userSpaceOnUse">
<stop stop-color="#1BDD9D"/>
<stop offset="1" stop-color="#2CC9CC"/>
</linearGradient>
</defs>
</svg>
