<svg width="68" height="19" viewBox="0 0 68 19" fill="none" xmlns="http://www.w3.org/2000/svg">
<path d="M9.77128 0C9.80801 0.00778295 9.84512 0.0135959 9.88246 0.017414C12.2479 0.136146 14.2878 1.02703 16.011 2.65485C16.0505 2.69442 16.093 2.734 16.125 2.76368L14.7979 4.09586C14.7431 4.0448 14.6741 3.98187 14.6059 3.91776C13.8041 3.1718 12.8513 2.60844 11.8127 2.2662C11.3632 2.1197 10.9013 2.01465 10.4328 1.95235C9.94186 1.89082 9.44623 1.87558 8.95243 1.90684C8.41813 1.93785 7.88907 2.02973 7.37544 2.18071C6.93641 2.3059 6.50965 2.47096 6.10045 2.67384C5.53898 2.94777 5.01569 3.29438 4.54396 3.70483C4.36181 3.86512 4.18204 4.02937 4.01172 4.20232C3.67221 4.5501 3.36842 4.93131 3.10495 5.34017C2.85212 5.72936 2.6353 6.14097 2.45721 6.56984C2.22976 7.11141 2.06827 7.67857 1.97623 8.259C1.93683 8.5051 1.90972 8.75304 1.89501 9.00186C1.87582 9.29856 1.87187 9.59604 1.88318 9.89314C1.90807 10.4072 1.98669 10.9173 2.11776 11.4149C2.24382 11.8978 2.41626 12.3673 2.63265 12.8167C2.92438 13.4203 3.29422 13.9825 3.7326 14.4889C5.03358 15.9948 6.87266 16.9263 8.85229 17.082C9.21694 17.1084 9.58291 17.1111 9.9479 17.0899C10.5391 17.055 11.1237 16.9476 11.6889 16.7701C12.0772 16.6508 12.4549 16.4995 12.8184 16.3177C14.0181 15.7199 15.0393 14.8147 15.7788 13.6938C16.1942 13.0664 16.5132 12.3798 16.725 11.6571C16.7443 11.5914 16.7644 11.5253 16.7861 11.4426C16.5354 11.4398 16.3004 11.4426 16.0654 11.4426H7.5564L9.48466 9.50687H18.9111C18.9111 9.55397 18.9111 9.59711 18.9111 9.64025C18.8591 11.9535 18.0891 13.9938 16.578 15.7419C15.2292 17.3004 13.5352 18.2978 11.5316 18.764C11.0057 18.8822 10.4708 18.9558 9.93253 18.9841C9.48211 19.0104 9.03033 19.0007 8.58144 18.9552C6.51559 18.7498 4.69653 17.9657 3.14832 16.5742C1.64309 15.2226 0.67521 13.5465 0.223797 11.5712C0.094684 11.0089 0.0212599 10.4351 0.00459537 9.85832C-0.0675519 7.34159 0.709509 5.1221 2.35864 3.22674C3.69041 1.6951 5.36163 0.712392 7.33286 0.245775C7.81545 0.134291 8.30592 0.0604571 8.79986 0.0249337C8.872 0.0193929 8.94494 0.0217675 9.01748 0.017414C9.05454 0.0134785 9.09139 0.00766644 9.12787 0L9.77128 0Z" fill="black"/>
<path d="M68.0002 18.9972H66.1153V11.4478H60.4334V18.9798C60.3589 19.0016 58.6802 19.0079 58.5513 18.9885V7.64642H60.4287V9.4836C60.5075 9.50497 65.9304 9.51289 66.1137 9.4927C66.1137 8.86897 66.1137 8.24364 66.1137 7.61832C66.1137 6.993 66.1137 6.37084 66.1137 5.74711V3.86283C66.1398 3.85781 66.1661 3.85437 66.1926 3.85254C66.7792 3.85254 67.3658 3.85254 67.9525 3.85254C67.9683 3.85254 67.9836 3.85531 67.9994 3.85689L68.0002 18.9972Z" fill="black"/>
<path d="M49.0669 11.4378H41.5395L39.6148 9.50486H46.8946C46.6325 8.75442 46.2152 8.06815 45.6701 7.49117C44.7972 6.56862 43.7339 5.99119 42.485 5.77866C41.2483 5.56689 39.9767 5.77147 38.8679 6.36055C37.7591 6.94963 36.8755 7.89017 36.3545 9.03575C35.8335 10.1813 35.7043 11.4677 35.9872 12.6946C36.27 13.9215 36.949 15.0201 37.9184 15.8194C39.044 16.7432 40.3434 17.1781 41.7942 17.1116C43.2451 17.0451 44.4846 16.4819 45.523 15.4822L46.8299 16.7946C44.9648 18.7628 41.4225 19.8369 38.1447 18.1869C36.4845 17.3486 35.1909 15.9246 34.5119 14.188C33.8329 12.4514 33.8162 10.5244 34.465 8.77616C35.1138 7.02796 36.3825 5.58163 38.0278 4.71437C39.6732 3.84712 41.5796 3.61996 43.3815 4.07644C47.2053 5.05558 49.1359 8.51345 49.0669 11.4378Z" fill="black"/>
<path d="M26.5057 15.162L33.0072 3.85757H35.1614C35.1635 3.86031 35.1653 3.86322 35.1669 3.86627C35.1669 3.86904 35.1697 3.873 35.1669 3.87538C35.1626 3.88721 35.1575 3.89871 35.1515 3.90981L26.4781 18.9927H24.6011V3.87419C24.6031 3.87081 24.6055 3.86763 24.6082 3.86469C24.6104 3.8626 24.6131 3.8611 24.6161 3.86034C24.6282 3.85705 24.6406 3.85492 24.6531 3.854H26.432C26.4479 3.85548 26.4637 3.85799 26.4793 3.86152V15.1569L26.5057 15.162Z" fill="black"/>
<path d="M52.8633 18.9922H50.9761V5.69901C50.8475 5.69189 50.7257 5.69664 50.6043 5.69585C50.4829 5.69506 50.352 5.69585 50.2258 5.69585H48.7407L47.6719 3.85669H60.4234V5.69466H52.8633V18.9922Z" fill="black"/>
<path d="M22.6909 18.9925H20.8159V7.64526H22.6819L22.6866 7.65001C22.6886 7.65239 22.6921 7.65476 22.6921 7.65714C22.6937 11.4183 22.695 15.1793 22.6961 18.9402C22.6957 18.9553 22.6929 18.9707 22.6909 18.9925Z" fill="black"/>
<path d="M21.7548 3.85257C21.9406 3.85327 22.122 3.90918 22.2761 4.01325C22.4303 4.11732 22.5503 4.26488 22.6211 4.43733C22.6918 4.60978 22.7101 4.7994 22.6736 4.98227C22.6371 5.16514 22.5475 5.33307 22.4161 5.46489C22.2847 5.59671 22.1173 5.68651 21.9351 5.72297C21.753 5.75943 21.5641 5.74092 21.3924 5.66976C21.2206 5.59861 21.0737 5.47801 20.9702 5.32316C20.8667 5.16831 20.8111 4.98615 20.8106 4.79965C20.8097 4.67496 20.8335 4.55134 20.8806 4.43598C20.9278 4.32062 20.9973 4.21582 21.0852 4.12769C21.1731 4.03955 21.2775 3.96984 21.3925 3.92261C21.5074 3.87538 21.6306 3.85157 21.7548 3.85257Z" fill="black"/>
</svg>
